<?xml version="1.0" encoding="utf-8"?>
<!-- Generator: Adobe Illustrator 16.0.0, SVG Export Plug-In . SVG Version: 6.00 Build 0)  -->
<!DOCTYPE svg PUBLIC "-//W3C//DTD SVG 1.1//EN" "http://www.w3.org/Graphics/SVG/1.1/DTD/svg11.dtd">
<svg version="1.1" id="Layer_1" xmlns="http://www.w3.org/2000/svg" xmlns:xlink="http://www.w3.org/1999/xlink" x="0px" y="0px"
	 width="25px" height="25px" viewBox="0 0 25 25" enable-background="new 0 0 25 25" xml:space="preserve">
<path d="M20.1,11.3L7.6,0.5c-0.8-0.7-2-0.7-2.7,0c-0.8,0.7-0.8,1.7,0,2.4L16,12.5L4.9,22.2c-0.8,0.7-0.8,1.7,0,2.4
	c0.8,0.7,2,0.7,2.7,0l12.5-10.8c0.4-0.3,0.6-0.8,0.6-1.2S20.5,11.6,20.1,11.3z"/>
<g>
	<polygon points="-43,6.6 -58.4,22 -64.3,23.2 -63,17.4 -47.6,2 	"/>
	<rect x="-44.5" y="-1.5" transform="matrix(0.707 -0.7072 0.7072 0.707 -13.7714 -29.7439)" width="3.5" height="6.5"/>
</g>
<g>
	<rect x="-29" y="14.3" transform="matrix(-0.7071 -0.7071 0.7071 -0.7071 -33.0209 17.8004)" width="32.4" height="3"/>
	<rect x="-29" y="14.2" transform="matrix(0.707 -0.7072 0.7072 0.707 -14.881 -4.4595)" width="32.4" height="3"/>
</g>
</svg>
