<?xml version="1.0" encoding="utf-8"?>
<!-- Generator: Adobe Illustrator 16.0.0, SVG Export Plug-In . SVG Version: 6.00 Build 0)  -->
<!DOCTYPE svg PUBLIC "-//W3C//DTD SVG 1.1//EN" "http://www.w3.org/Graphics/SVG/1.1/DTD/svg11.dtd">
<svg version="1.1" id="Layer_1" xmlns="http://www.w3.org/2000/svg" xmlns:xlink="http://www.w3.org/1999/xlink" x="0px" y="0px"
	 width="25px" height="25px" viewBox="0 0 25 25" enable-background="new 0 0 25 25" xml:space="preserve">
<path d="M45.4,8.1L32.9-2.7c-0.8-0.7-2-0.7-2.7,0c-0.8,0.7-0.8,1.7,0,2.4l11.1,9.7l-11.1,9.7c-0.8,0.7-0.8,1.7,0,2.4
	c0.8,0.7,2,0.7,2.7,0l12.5-10.8c0.4-0.3,0.6-0.8,0.6-1.2S45.8,8.4,45.4,8.1z"/>
<g>
	<polygon points="-17.7,3.3 -33.1,18.7 -38.9,20 -37.7,14.2 -22.3,-1.2 	"/>
	<rect x="-19.2" y="-4.7" transform="matrix(0.707 -0.7072 0.7072 0.707 -4.0664 -12.787)" width="3.5" height="6.5"/>
</g>
<g>
	<rect x="-3.7" y="11" transform="matrix(-0.7071 -0.7071 0.7071 -0.7071 12.4873 30.1814)" width="32.4" height="3"/>
	<rect x="-3.7" y="11" transform="matrix(0.707 -0.7072 0.7072 0.707 -5.1758 12.4975)" width="32.4" height="3"/>
</g>
</svg>
