<?xml version="1.0" encoding="utf-8"?>
<!-- Generator: Adobe Illustrator 16.0.0, SVG Export Plug-In . SVG Version: 6.00 Build 0)  -->
<!DOCTYPE svg PUBLIC "-//W3C//DTD SVG 1.1//EN" "http://www.w3.org/Graphics/SVG/1.1/DTD/svg11.dtd">
<svg version="1.1" id="Layer_1" xmlns="http://www.w3.org/2000/svg" xmlns:xlink="http://www.w3.org/1999/xlink" x="0px" y="0px"
	 width="25px" height="25px" viewBox="0 0 25 25" enable-background="new 0 0 25 25" xml:space="preserve">
<path d="M84.4,13.1L71.9,2.3c-0.8-0.7-2-0.7-2.7,0c-0.8,0.7-0.8,1.7,0,2.4l11.1,9.7l-11.1,9.7c-0.8,0.7-0.8,1.7,0,2.4
	c0.8,0.7,2,0.7,2.7,0l12.5-10.8c0.4-0.3,0.6-0.8,0.6-1.2S84.7,13.4,84.4,13.1z"/>
<g>
	<polygon points="21.2,8.3 5.8,23.7 0,25 1.3,19.2 16.7,3.8 	"/>
	<rect x="19.7" y="0.3" transform="matrix(0.707 -0.7072 0.7072 0.707 3.8047 16.2217)" width="3.5" height="6.5"/>
</g>
<g>
	<rect x="35.3" y="16" transform="matrix(-0.7071 -0.7071 0.7071 -0.7071 75.4352 66.2648)" width="32.4" height="3"/>
	<rect x="35.3" y="16" transform="matrix(0.707 -0.7072 0.7072 0.707 2.6955 41.5064)" width="32.4" height="3"/>
</g>
</svg>
